<svg xmlns="http://www.w3.org/2000/svg" width="576.88" height="706.317" viewBox="0 0 576.88 706.317">
  <g id="delete" transform="translate(0 0)">
    <path id="Path_1" data-name="Path 1" d="M575.09,157.874l-15.6-46.748a43.492,43.492,0,0,0-41.3-29.768H387.119V38.686A38.718,38.718,0,0,0,348.454,0H228.425a38.722,38.722,0,0,0-38.664,38.686V81.359H58.695a43.494,43.494,0,0,0-41.31,29.768l-15.6,46.748a35,35,0,0,0,33.195,46.069h16.3L87.164,647.606a64.186,64.186,0,0,0,63.609,58.711H433.387a64.181,64.181,0,0,0,63.6-58.716l35.878-443.658H541.9a34.995,34.995,0,0,0,33.195-46.069ZM231.147,41.385H345.733V81.359H231.147ZM455.74,644.266a22.569,22.569,0,0,1-22.353,20.666H150.774a22.569,22.569,0,0,1-22.353-20.666L92.807,203.943H491.349ZM43.861,162.557l12.788-38.336a2.15,2.15,0,0,1,2.048-1.477h459.5a2.155,2.155,0,0,1,2.048,1.477l12.788,38.336Zm0,0"/>
    <path id="Path_2" data-name="Path 2" d="M287.913,579.959c.366.022.727.027,1.094.027a20.687,20.687,0,0,0,20.644-19.615L329.083,187.35a20.694,20.694,0,1,0-41.332-2.156L268.325,558.215a20.694,20.694,0,0,0,19.588,21.744Zm0,0" transform="translate(101.826 62.841)"/>
    <path id="Path_3" data-name="Path 3" d="M126.173,560.419a20.693,20.693,0,0,0,20.644,19.567c.377,0,.765-.011,1.148-.032A20.691,20.691,0,0,0,167.5,558.166L147.146,185.145a20.691,20.691,0,1,0-41.321,2.252Zm0,0" transform="translate(40.152 62.842)"/>
    <path id="Path_4" data-name="Path 4" d="M214.947,579.986a20.691,20.691,0,0,0,20.693-20.693V186.272a20.693,20.693,0,1,0-41.386,0V559.293A20.691,20.691,0,0,0,214.947,579.986Zm0,0" transform="translate(73.725 62.842)"/>
  </g>
</svg>
