<?xml version="1.0" encoding="UTF-8" standalone="no"?>
<svg
   xmlns:dc="http://purl.org/dc/elements/1.1/"
   xmlns:cc="http://creativecommons.org/ns#"
   xmlns:rdf="http://www.w3.org/1999/02/22-rdf-syntax-ns#"
   xmlns:svg="http://www.w3.org/2000/svg"
   xmlns="http://www.w3.org/2000/svg"
   width="24"
   height="24"
   viewBox="0 0 24 24"
   version="1.1"
   id="svg8">
  <defs
     id="defs2" />
  <metadata
     id="metadata5">
    <rdf:RDF>
      <cc:Work
         rdf:about="">
        <dc:format>image/svg+xml</dc:format>
        <dc:type
           rdf:resource="http://purl.org/dc/dcmitype/StillImage" />
        <dc:title></dc:title>
      </cc:Work>
    </rdf:RDF>
  </metadata>
  <g
     id="layer1"
     transform="translate(10.558848,18.193592)">
    <path
       id="path47"
       style="color:#000000;font-style:normal;font-variant:normal;font-weight:normal;font-stretch:normal;font-size:medium;line-height:normal;font-family:sans-serif;font-variant-ligatures:normal;font-variant-position:normal;font-variant-caps:normal;font-variant-numeric:normal;font-variant-alternates:normal;font-variant-east-asian:normal;font-feature-settings:normal;font-variation-settings:normal;text-indent:0;text-align:start;text-decoration:none;text-decoration-line:none;text-decoration-style:solid;text-decoration-color:#000000;letter-spacing:normal;word-spacing:normal;text-transform:none;writing-mode:lr-tb;direction:ltr;text-orientation:mixed;dominant-baseline:auto;baseline-shift:baseline;text-anchor:start;white-space:normal;shape-padding:0;shape-margin:0;inline-size:0;clip-rule:evenodd;display:inline;overflow:visible;visibility:visible;opacity:1;isolation:auto;mix-blend-mode:normal;color-interpolation:sRGB;color-interpolation-filters:linearRGB;solid-color:#000000;solid-opacity:1;vector-effect:none;fill:#2c3e50;fill-opacity:1;fill-rule:evenodd;stroke:none;stroke-width:0.270767;stroke-linecap:butt;stroke-linejoin:miter;stroke-miterlimit:4;stroke-dasharray:none;stroke-dashoffset:0;stroke-opacity:1;color-rendering:auto;image-rendering:auto;shape-rendering:auto;text-rendering:auto;enable-background:accumulate;stop-color:#000000;stop-opacity:1"
       d="m 1.441152,-17.193578 c -0.1478942,0 -0.2951274,0.0033 -0.44158645,0.009 -0.11228799,-0.01636 -0.22589599,-0.01003 -0.33423076,0.01798 -5.71306859,0.398104 -10.22418279,5.158676 -10.22418279,10.9728777 0,5.81420235 4.5111142,10.5747718 10.22418279,10.9728784 0.10833477,0.027997 0.22196985,0.034864 0.33423076,0.01851 0.14648615,0.00576 0.29369225,0.00845 0.44158645,0.00845 0.1478941,0 0.2951002,-0.00271 0.4415864,-0.00846 0.1122609,0.016354 0.2259231,0.00949 0.3342308,-0.01851 5.7130686,-0.3981022 10.2241828,-5.15867155 10.2241828,-10.972874 0,-5.8142011 -4.5111142,-10.5747731 -10.2241827,-10.9728781 -0.1083349,-0.028 -0.2219429,-0.03435 -0.3342309,-0.01798 -0.1464591,-0.0058 -0.2936923,-0.009 -0.4415864,-0.009 z m 0,1.692285 c 0.029378,0 0.058491,2.59e-4 0.087789,5.28e-4 0.934885,1.586525 1.6217656,3.298344 2.0434616,5.076325 h -4.2625002 c 0.421696,-1.777981 1.10857662,-3.4898 2.0434615,-5.076324 0.029297,-2.7e-4 0.05841,-5.29e-4 0.087788,-5.29e-4 z m -2.1534615,0.250669 c -0.776837,1.531857 -1.3514829,3.153964 -1.7129328,4.826184 h -4.4264422 c 1.2249058,-2.396167 3.4576494,-4.191049 6.139375,-4.826184 z m 4.306923,0 c 2.6817256,0.635135 4.9144692,2.430017 6.139375,4.826184 H 5.3075463 c -0.3614499,-1.67222 -0.9360958,-3.294327 -1.7129328,-4.826184 z m -11.1105288,6.5184687 h 4.7998076 c -0.1072246,0.8389939 -0.1612981,1.6867608 -0.1612981,2.5384266 0,0.8516658 0.054073,1.6994327 0.1612981,2.5384267 h -4.7998076 c -0.2282585,-0.8069354 -0.350625,-1.6584117 -0.350625,-2.5384267 0,-0.880015 0.1223665,-1.7314913 0.350625,-2.5384266 z m 6.5074519,0 h 4.8992308 c 0.1171613,0.8379921 0.1766347,1.6860838 0.1766347,2.5384266 0,0.8523428 -0.059473,1.7004345 -0.1766347,2.5384267 h -4.8992308 c -0.1171613,-0.8379922 -0.1766347,-1.6860839 -0.1766347,-2.5384267 0,-0.8523428 0.059473,-1.7004345 0.1766347,-2.5384266 z m 6.6068751,0 h 4.7998073 c 0.228259,0.8069353 0.350625,1.6584116 0.350625,2.5384266 0,0.880015 -0.122366,1.7314913 -0.350625,2.5384267 H 5.5984117 c 0.1072246,-0.838994 0.1612981,-1.6867609 0.1612981,-2.5384267 0,-0.8516658 -0.054074,-1.6994327 -0.1612981,-2.5384266 z m -12.4500962,6.7691378 h 4.4264422 c 0.3614499,1.67222085 0.9360958,3.2948568 1.7129328,4.8267126 -2.6817256,-0.6351346 -4.9144692,-2.43054607 -6.139375,-4.8267126 z m 6.1615864,0 h 4.2625002 c -0.421696,1.77798175 -1.1085766,3.4898012 -2.0434616,5.0763246 -0.029297,2.708e-4 -0.05841,5.288e-4 -0.087789,5.288e-4 -0.029378,0 -0.058491,-2.453e-4 -0.087789,-5.416e-4 -0.93488392,-1.5864979 -1.6217646,-3.29833005 -2.0434606,-5.0763118 z m 5.9976444,0 h 4.4264422 c -1.2249058,2.39616653 -3.45765,4.191578 -6.139375,4.8267126 0.7768364,-1.5318558 1.3514829,-3.15449175 1.7129328,-4.8267126 z" />
  </g>
</svg>
