<svg xmlns="http://www.w3.org/2000/svg" width="869.921" height="869.921" viewBox="0 0 869.921 869.921">
  <path id="zen" d="M869.695,420.77l-.087-1.075A434.9,434.9,0,0,0,434.96,0C318.78,0,209.549,45.244,127.4,127.4S0,318.78,0,434.96a107.379,107.379,0,0,0,214.758,0c0-166.575,135.521-302.1,302.1-302.1,165.161,0,297.814,129.268,302,294.283,0,.08.014.16.02.24l.08,7.573c0,211.732-172.256,383.988-383.988,383.988a25.486,25.486,0,1,0,0,50.972c116.18,0,225.411-45.244,307.565-127.4s127.4-191.384,127.4-307.564Q869.923,427.864,869.695,420.77Zm0,0" transform="translate(0 0)"/>
</svg>
